<svg xmlns="http://www.w3.org/2000/svg" enable-background="new 0 0 70 70" viewBox="0 0 70 70" id="resume"><g><g><path d="M51.2,64.9H3c-0.6,0-1-0.4-1-1V6.1c0-0.6,0.4-1,1-1h48.2c0.6,0,1,0.4,1,1v27.3c0,0.6-0.4,1-1,1s-1-0.4-1-1V7.1H4v55.8
				h46.2v-8.3c0-0.6,0.4-1,1-1s1,0.4,1,1v9.3C52.2,64.4,51.7,64.9,51.2,64.9z"></path><g><path d="M15.3 19.1c-2.5 0-4.5-2-4.5-4.5 0-2.5 2-4.5 4.5-4.5s4.5 2 4.5 4.5C19.8 17.1 17.8 19.1 15.3 19.1zM15.3 12c-1.4 0-2.5 1.1-2.5 2.5 0 1.4 1.1 2.5 2.5 2.5s2.5-1.1 2.5-2.5C17.8 13.2 16.7 12 15.3 12zM23.6 29.6H7c-.6 0-1-.4-1-1 0-4 2.5-7.5 6.3-8.8.4-.1.9 0 1.1.4.4.6 1.1.9 1.8.9.7 0 1.4-.3 1.9-.9.3-.4.7-.5 1.1-.4 3.8 1.3 6.3 4.8 6.3 8.8C24.6 29.1 24.2 29.6 23.6 29.6zM8.1 27.6h14.5c-.3-2.5-2-4.7-4.3-5.7-.8.8-1.8 1.2-3 1.2-1.1 0-2.2-.4-2.9-1.2C10 22.9 8.4 25.1 8.1 27.6z"></path></g><g><path d="M45.1 13.5H29.7c-.6 0-1-.4-1-1s.4-1 1-1h15.4c.6 0 1 .4 1 1S45.6 13.5 45.1 13.5zM45.1 21.2H29.7c-.6 0-1-.4-1-1s.4-1 1-1h15.4c.6 0 1 .4 1 1S45.6 21.2 45.1 21.2zM45.1 28.9H29.7c-.6 0-1-.4-1-1s.4-1 1-1h15.4c.6 0 1 .4 1 1S45.6 28.9 45.1 28.9zM35 36.6H7c-.6 0-1-.4-1-1s.4-1 1-1h28c.6 0 1 .4 1 1S35.5 36.6 35 36.6zM32.7 44.4H7c-.6 0-1-.4-1-1s.4-1 1-1h25.7c.6 0 1 .4 1 1S33.3 44.4 32.7 44.4zM35 52.1H7c-.6 0-1-.4-1-1s.4-1 1-1h28c.6 0 1 .4 1 1S35.5 52.1 35 52.1zM45.1 59.8H7c-.6 0-1-.4-1-1s.4-1 1-1h38.1c.6 0 1 .4 1 1S45.6 59.8 45.1 59.8z"></path></g></g><g><path d="M48.5,55.9c-3.1,0-6.1-1.2-8.4-3.5c-2.3-2.3-3.5-5.2-3.5-8.4c0-3.2,1.2-6.2,3.5-8.4c2.2-2.2,5.2-3.5,8.4-3.5c0,0,0,0,0,0
				c3.2,0,6.2,1.2,8.4,3.5c4,4,4.6,10.3,1.5,15c-0.4,0.7-1,1.3-1.5,1.9C56.3,53,55.7,53.5,55,54C53,55.3,50.8,55.9,48.5,55.9z
				 M48.5,34.1c-2.6,0-5.1,1-7,2.9c-1.9,1.9-2.9,4.4-2.9,7s1,5.1,2.9,7c3.3,3.3,8.5,3.8,12.4,1.3c0.5-0.4,1.1-0.8,1.6-1.3
				c0.5-0.5,0.9-1,1.3-1.6c2.6-3.9,2-9.1-1.3-12.4l0,0C53.6,35.1,51.1,34.1,48.5,34.1C48.5,34.1,48.5,34.1,48.5,34.1z"></path><path d="M64.1,63.5c0,0-0.1,0-0.1,0c-1.1,0-2.1-0.5-2.8-1.3l-7.5-8.4c-0.2-0.2-0.3-0.5-0.2-0.8c0-0.3,0.2-0.5,0.4-0.7
				c0.6-0.4,1.1-0.8,1.6-1.3c0.5-0.5,0.9-1,1.3-1.6c0.2-0.2,0.4-0.4,0.7-0.4c0.3,0,0.6,0.1,0.8,0.2l8.4,7.5c0.8,0.7,1.3,1.7,1.3,2.8
				c0,1.1-0.4,2.1-1.1,2.8C66.1,63.1,65.2,63.5,64.1,63.5z M56,53.3l6.8,7.6c0.3,0.4,0.8,0.6,1.3,0.6c0.5,0,1-0.2,1.4-0.5
				s0.6-0.9,0.5-1.4c0-0.5-0.2-1-0.6-1.3c0,0,0,0,0,0l-7.6-6.8c-0.3,0.3-0.6,0.6-0.9,0.9C56.6,52.7,56.3,53,56,53.3z"></path></g></g></svg>